<svg data-v-423bf9ae="" xmlns="http://www.w3.org/2000/svg" viewBox="0 0 263 90" class="iconLeft"><!----><!----><!----><g data-v-423bf9ae="" id="76d693a6-b377-4744-960a-4de75005c311" fill="white" transform="matrix(5.597014785954833,0,0,5.597014785954833,124.60936088659193,-12.257460890235372)"><path d="M3.06 6.06L3.06 9.56Q3.06 9.97 2.91 10.20Q2.76 10.42 2.52 10.52Q2.27 10.62 1.96 10.64Q1.64 10.66 1.31 10.66L1.31 10.66L1.31 15.47L0.44 15.47L0.44 4.97L1.53 4.97Q2.11 4.97 2.42 5.08Q2.73 5.19 2.88 5.35Q3.02 5.52 3.04 5.71Q3.06 5.90 3.06 6.06L3.06 6.06ZM2.19 9.34L2.19 6.06Q2.19 5.90 2.14 5.81Q2.10 5.72 2.00 5.68Q1.89 5.64 1.73 5.63Q1.56 5.63 1.31 5.63L1.31 5.63L1.31 10.00Q1.48 10.00 1.63 9.99Q1.79 9.98 1.91 9.92Q2.04 9.86 2.11 9.72Q2.19 9.59 2.19 9.34L2.19 9.34ZM6.13 5.84L6.13 9.34Q6.13 9.67 5.96 9.85Q5.80 10.03 5.47 10.10L5.47 10.10Q5.80 10.19 5.96 10.37Q6.13 10.55 6.13 10.88L6.13 10.88L6.13 15.47L5.25 15.47L5.25 10.88Q5.25 10.71 5.21 10.62Q5.17 10.53 5.09 10.49Q5.00 10.45 4.88 10.45Q4.76 10.44 4.59 10.44L4.59 10.44L4.59 15.47L3.72 15.47L3.72 4.97L4.70 4.97Q5.15 4.97 5.47 5.04Q5.78 5.11 5.95 5.29Q6.13 5.48 6.13 5.84L6.13 5.84ZM5.25 9.34L5.25 6.06Q5.25 5.90 5.21 5.81Q5.17 5.72 5.09 5.68Q5.00 5.64 4.88 5.63Q4.76 5.63 4.59 5.63L4.59 5.63L4.59 9.78Q4.76 9.78 4.88 9.78Q5.00 9.77 5.09 9.73Q5.17 9.69 5.21 9.60Q5.25 9.51 5.25 9.34L5.25 9.34ZM9.63 5.95L9.63 14.49Q9.63 14.77 9.52 14.98Q9.41 15.19 9.24 15.33Q9.06 15.46 8.83 15.53Q8.61 15.59 8.37 15.59L8.37 15.59Q8.11 15.59 7.87 15.52Q7.62 15.45 7.43 15.31Q7.24 15.17 7.12 14.96Q7 14.75 7 14.49L7 14.49L7 5.95Q7 5.69 7.12 5.49Q7.24 5.29 7.43 5.15Q7.63 5.02 7.88 4.95Q8.12 4.87 8.37 4.87L8.37 4.87Q8.61 4.87 8.84 4.94Q9.06 5.00 9.24 5.14Q9.41 5.27 9.52 5.48Q9.63 5.68 9.63 5.95L9.63 5.95ZM8.75 14.49L8.75 5.95Q8.75 5.72 8.64 5.62Q8.52 5.52 8.37 5.52L8.37 5.52Q8.29 5.52 8.20 5.55Q8.11 5.58 8.04 5.64Q7.96 5.70 7.92 5.78Q7.88 5.86 7.88 5.95L7.88 5.95L7.88 14.49Q7.88 14.58 7.92 14.66Q7.96 14.75 8.04 14.80Q8.11 14.85 8.19 14.89Q8.28 14.92 8.37 14.92L8.37 14.92Q8.52 14.92 8.63 14.82Q8.75 14.72 8.75 14.49L8.75 14.49ZM12.03 11.31L12.79 4.97L13.56 4.97L13.56 15.47L12.80 15.47L12.80 9.13L12.20 15.03L11.86 15.03L11.27 9.13L11.27 15.47L10.50 15.47L10.50 4.97L11.27 4.97L12.03 11.31ZM17.06 6.06L17.06 9.56Q17.06 9.97 16.91 10.20Q16.76 10.42 16.52 10.52Q16.27 10.62 15.96 10.64Q15.64 10.66 15.31 10.66L15.31 10.66L15.31 15.47L14.44 15.47L14.44 4.97L15.53 4.97Q16.11 4.97 16.42 5.08Q16.73 5.19 16.88 5.35Q17.02 5.52 17.04 5.71Q17.06 5.90 17.06 6.06L17.06 6.06ZM16.19 9.34L16.19 6.06Q16.19 5.90 16.14 5.81Q16.10 5.72 16.00 5.68Q15.89 5.64 15.73 5.63Q15.56 5.63 15.31 5.63L15.31 5.63L15.31 10.00Q15.48 10.00 15.63 9.99Q15.79 9.98 15.91 9.92Q16.04 9.86 16.11 9.72Q16.19 9.59 16.19 9.34L16.19 9.34ZM17.39 4.97L20.02 4.97L20.02 5.63L19.14 5.63L19.14 15.47L18.27 15.47L18.27 5.63L17.39 5.63L17.39 4.97ZM20.67 4.97L21.55 4.97L21.55 15.47L20.67 15.47L20.67 4.97ZM23.52 9.78L23.63 8.03L23.84 4.97L24.72 4.97L24.06 10.44L24.72 15.47L23.84 15.47L23.63 12.84L23.52 11.09L23.41 12.84L23.19 15.47L22.31 15.47L22.97 10.44L22.31 4.97L23.19 4.97L23.41 8.03L23.52 9.78Z"></path></g><!----><g data-v-423bf9ae="" id="d3fa6172-a1fe-4714-9711-169fdba82ab9" transform="matrix(1.6877952019119555,0,0,1.6877952019119555,-31.604131267237108,-45.570470451622796)" stroke="none" fill="white"><path d="M76.389 39.709l-.219 3.363 2.564.274-3.548 33.273-43.528-4.64.01-.09-3.363-.22-.352 3.3 50.225 5.355 4.261-39.97z"></path><path d="M19 27v40.197h50.509V27H19zm47.142 15.003V63.83H22.367V30.367h43.774V42.003z"></path><path d="M70.561 34.148v2.321l2.654.173-.033.525-.144 2.185-.22 3.363-1.853 28.367-.526-.034-38.414-2.51-3.363-.22-1.053-.069h-3.701l-.136 2.069 4.645.304 3.363.22 41.343 2.701 1.999-30.583.22-3.362.334-5.116z"></path><path d="M30.231 55.667L43.7 33.148l15.363 22.519z"></path><path d="M45.885 53.563l8.181-13.68 9.333 13.68z"></path></g><!----></svg>